<svg xmlns="http://www.w3.org/2000/svg" width="480" height="112" class="svgbob"><style>.svgbob line, .svgbob path, .svgbob circle, .svgbob rect, .svgbob polygon {
    stroke: black;
    stroke-width: 2;
    stroke-opacity: 1;
    fill-opacity: 1;
    stroke-linecap: round;
    stroke-linejoin: miter;
}
.svgbob text {
    white-space: pre;
    fill: black;
    font-family: Iosevka Fixed, monospace;
    font-size: 14px;
}
.svgbob rect.backdrop {
    stroke: none;
    fill: none;
}
.svgbob .broken {
    stroke-dasharray: 8;
}
.svgbob .filled {
    fill: #CC785C;
}
.svgbob .bg_filled {
    fill: white;
    stroke-width: 1;
}
.svgbob .nofill {
    fill: white;
}
.svgbob .end_marked_arrow {
    marker-end: url(#arrow);
}
.svgbob .start_marked_arrow {
    marker-start: url(#arrow);
}
.svgbob .end_marked_diamond {
    marker-end: url(#diamond);
}
.svgbob .start_marked_diamond {
    marker-start: url(#diamond);
}
.svgbob .end_marked_circle {
    marker-end: url(#circle);
}
.svgbob .start_marked_circle {
    marker-start: url(#circle);
}
.svgbob .end_marked_open_circle {
    marker-end: url(#open_circle);
}
.svgbob .start_marked_open_circle {
    marker-start: url(#open_circle);
}
.svgbob .end_marked_big_open_circle {
    marker-end: url(#big_open_circle);
}
.svgbob .start_marked_big_open_circle {
    marker-start: url(#big_open_circle);
}
.svgbob line,
.svgbob path,
.svgbob circle,
.svgbob rect,
.svgbob polygon,
.svgbob text {
  stroke: #CC785C;
  fill: #CC785C;
}<!--separator--></style><defs><marker id="arrow" viewBox="-2 -2 8 8" refX="4" refY="2" markerWidth="7" markerHeight="7" orient="auto-start-reverse"><polygon points="0,0 0,4 4,2 0,0"></polygon></marker><marker id="diamond" viewBox="-2 -2 8 8" refX="4" refY="2" markerWidth="7" markerHeight="7" orient="auto-start-reverse"><polygon points="0,2 2,0 4,2 2,4 0,2"></polygon></marker><marker id="circle" viewBox="0 0 8 8" refX="4" refY="4" markerWidth="7" markerHeight="7" orient="auto-start-reverse"><circle cx="4" cy="4" r="2" class="filled"></circle></marker><marker id="open_circle" viewBox="0 0 8 8" refX="4" refY="4" markerWidth="7" markerHeight="7" orient="auto-start-reverse"><circle cx="4" cy="4" r="2" class="bg_filled"></circle></marker><marker id="big_open_circle" viewBox="0 0 8 8" refX="4" refY="4" markerWidth="7" markerHeight="7" orient="auto-start-reverse"><circle cx="4" cy="4" r="3" class="bg_filled"></circle></marker></defs><rect class="backdrop" x="0" y="0" width="480" height="112"></rect><rect x="8" y="0" width="8" height="16" class="solid filled" rx="0"></rect><rect x="16" y="0" width="8" height="16" class="solid filled" rx="0"></rect><rect x="24" y="0" width="8" height="16" class="solid filled" rx="0"></rect><rect x="32" y="0" width="8" height="16" class="solid filled" rx="0"></rect><rect x="40" y="0" width="8" height="16" class="solid filled" rx="0"></rect><rect x="48" y="0" width="8" height="16" class="solid filled" rx="0"></rect><rect x="80" y="0" width="8" height="16" class="solid filled" rx="0"></rect><rect x="88" y="0" width="8" height="16" class="solid filled" rx="0"></rect><rect x="96" y="0" width="8" height="16" class="solid filled" rx="0"></rect><rect x="104" y="0" width="8" height="16" class="solid filled" rx="0"></rect><rect x="112" y="0" width="8" height="16" class="solid filled" rx="0"></rect><rect x="120" y="0" width="8" height="16" class="solid filled" rx="0"></rect><rect x="144" y="0" width="8" height="16" class="solid filled" rx="0"></rect><rect x="152" y="0" width="8" height="16" class="solid filled" rx="0"></rect><rect x="184" y="0" width="8" height="16" class="solid filled" rx="0"></rect><rect x="192" y="0" width="8" height="16" class="solid filled" rx="0"></rect><rect x="208" y="0" width="8" height="16" class="solid filled" rx="0"></rect><rect x="216" y="0" width="8" height="16" class="solid filled" rx="0"></rect><rect x="8" y="16" width="8" height="16" class="solid filled" rx="0"></rect><rect x="16" y="16" width="8" height="16" class="solid filled" rx="0"></rect><rect x="48" y="16" width="8" height="16" class="solid filled" rx="0"></rect><rect x="56" y="16" width="8" height="16" class="solid filled" rx="0"></rect><rect x="72" y="16" width="8" height="16" class="solid filled" rx="0"></rect><rect x="80" y="16" width="8" height="16" class="solid filled" rx="0"></rect><rect x="120" y="16" width="8" height="16" class="solid filled" rx="0"></rect><rect x="128" y="16" width="8" height="16" class="solid filled" rx="0"></rect><rect x="144" y="16" width="8" height="16" class="solid filled" rx="0"></rect><rect x="152" y="16" width="8" height="16" class="solid filled" rx="0"></rect><rect x="176" y="16" width="8" height="16" class="solid filled" rx="0"></rect><rect x="184" y="16" width="8" height="16" class="solid filled" rx="0"></rect><rect x="208" y="16" width="8" height="16" class="solid filled" rx="0"></rect><rect x="216" y="16" width="8" height="16" class="solid filled" rx="0"></rect><rect x="8" y="32" width="8" height="16" class="solid filled" rx="0"></rect><rect x="16" y="32" width="8" height="16" class="solid filled" rx="0"></rect><rect x="24" y="32" width="8" height="16" class="solid filled" rx="0"></rect><rect x="32" y="32" width="8" height="16" class="solid filled" rx="0"></rect><rect x="40" y="32" width="8" height="16" class="solid filled" rx="0"></rect><rect x="48" y="32" width="8" height="16" class="solid filled" rx="0"></rect><rect x="72" y="32" width="8" height="16" class="solid filled" rx="0"></rect><rect x="80" y="32" width="8" height="16" class="solid filled" rx="0"></rect><rect x="120" y="32" width="8" height="16" class="solid filled" rx="0"></rect><rect x="128" y="32" width="8" height="16" class="solid filled" rx="0"></rect><rect x="144" y="32" width="8" height="16" class="solid filled" rx="0"></rect><rect x="152" y="32" width="8" height="16" class="solid filled" rx="0"></rect><rect x="160" y="32" width="8" height="16" class="solid filled" rx="0"></rect><rect x="168" y="32" width="8" height="16" class="solid filled" rx="0"></rect><rect x="176" y="32" width="8" height="16" class="solid filled" rx="0"></rect><rect x="208" y="32" width="8" height="16" class="solid filled" rx="0"></rect><rect x="216" y="32" width="8" height="16" class="solid filled" rx="0"></rect><rect x="8" y="48" width="8" height="16" class="solid filled" rx="0"></rect><rect x="16" y="48" width="8" height="16" class="solid filled" rx="0"></rect><rect x="48" y="48" width="8" height="16" class="solid filled" rx="0"></rect><rect x="56" y="48" width="8" height="16" class="solid filled" rx="0"></rect><rect x="72" y="48" width="8" height="16" class="solid filled" rx="0"></rect><rect x="80" y="48" width="8" height="16" class="solid filled" rx="0"></rect><rect x="120" y="48" width="8" height="16" class="solid filled" rx="0"></rect><rect x="128" y="48" width="8" height="16" class="solid filled" rx="0"></rect><rect x="144" y="48" width="8" height="16" class="solid filled" rx="0"></rect><rect x="152" y="48" width="8" height="16" class="solid filled" rx="0"></rect><rect x="176" y="48" width="8" height="16" class="solid filled" rx="0"></rect><rect x="184" y="48" width="8" height="16" class="solid filled" rx="0"></rect><rect x="208" y="48" width="8" height="16" class="solid filled" rx="0"></rect><rect x="216" y="48" width="8" height="16" class="solid filled" rx="0"></rect><rect x="8" y="64" width="8" height="16" class="solid filled" rx="0"></rect><rect x="16" y="64" width="8" height="16" class="solid filled" rx="0"></rect><rect x="48" y="64" width="8" height="16" class="solid filled" rx="0"></rect><rect x="56" y="64" width="8" height="16" class="solid filled" rx="0"></rect><rect x="80" y="64" width="8" height="16" class="solid filled" rx="0"></rect><rect x="88" y="64" width="8" height="16" class="solid filled" rx="0"></rect><rect x="96" y="64" width="8" height="16" class="solid filled" rx="0"></rect><rect x="104" y="64" width="8" height="16" class="solid filled" rx="0"></rect><rect x="112" y="64" width="8" height="16" class="solid filled" rx="0"></rect><rect x="120" y="64" width="8" height="16" class="solid filled" rx="0"></rect><rect x="144" y="64" width="8" height="16" class="solid filled" rx="0"></rect><rect x="152" y="64" width="8" height="16" class="solid filled" rx="0"></rect><rect x="184" y="64" width="8" height="16" class="solid filled" rx="0"></rect><rect x="192" y="64" width="8" height="16" class="solid filled" rx="0"></rect><rect x="208" y="64" width="8" height="16" class="solid filled" rx="0"></rect><rect x="216" y="64" width="8" height="16" class="solid filled" rx="0"></rect><rect x="264" y="0" width="8" height="16" class="solid filled" rx="0"></rect><rect x="272" y="0" width="8" height="16" class="solid filled" rx="0"></rect><rect x="280" y="0" width="8" height="16" class="solid filled" rx="0"></rect><rect x="288" y="0" width="8" height="16" class="solid filled" rx="0"></rect><rect x="296" y="0" width="8" height="16" class="solid filled" rx="0"></rect><rect x="304" y="0" width="8" height="16" class="solid filled" rx="0"></rect><rect x="336" y="0" width="8" height="16" class="solid filled" rx="0"></rect><rect x="344" y="0" width="8" height="16" class="solid filled" rx="0"></rect><rect x="352" y="0" width="8" height="16" class="solid filled" rx="0"></rect><rect x="360" y="0" width="8" height="16" class="solid filled" rx="0"></rect><rect x="368" y="0" width="8" height="16" class="solid filled" rx="0"></rect><rect x="376" y="0" width="8" height="16" class="solid filled" rx="0"></rect><rect x="400" y="0" width="8" height="16" class="solid filled" rx="0"></rect><rect x="408" y="0" width="8" height="16" class="solid filled" rx="0"></rect><rect x="448" y="0" width="8" height="16" class="solid filled" rx="0"></rect><rect x="456" y="0" width="8" height="16" class="solid filled" rx="0"></rect><rect x="264" y="16" width="8" height="16" class="solid filled" rx="0"></rect><rect x="272" y="16" width="8" height="16" class="solid filled" rx="0"></rect><rect x="304" y="16" width="8" height="16" class="solid filled" rx="0"></rect><rect x="312" y="16" width="8" height="16" class="solid filled" rx="0"></rect><rect x="328" y="16" width="8" height="16" class="solid filled" rx="0"></rect><rect x="336" y="16" width="8" height="16" class="solid filled" rx="0"></rect><rect x="376" y="16" width="8" height="16" class="solid filled" rx="0"></rect><rect x="384" y="16" width="8" height="16" class="solid filled" rx="0"></rect><rect x="408" y="16" width="8" height="16" class="solid filled" rx="0"></rect><rect x="416" y="16" width="8" height="16" class="solid filled" rx="0"></rect><rect x="440" y="16" width="8" height="16" class="solid filled" rx="0"></rect><rect x="448" y="16" width="8" height="16" class="solid filled" rx="0"></rect><rect x="264" y="32" width="8" height="16" class="solid filled" rx="0"></rect><rect x="272" y="32" width="8" height="16" class="solid filled" rx="0"></rect><rect x="280" y="32" width="8" height="16" class="solid filled" rx="0"></rect><rect x="288" y="32" width="8" height="16" class="solid filled" rx="0"></rect><rect x="296" y="32" width="8" height="16" class="solid filled" rx="0"></rect><rect x="304" y="32" width="8" height="16" class="solid filled" rx="0"></rect><rect x="328" y="32" width="8" height="16" class="solid filled" rx="0"></rect><rect x="336" y="32" width="8" height="16" class="solid filled" rx="0"></rect><rect x="376" y="32" width="8" height="16" class="solid filled" rx="0"></rect><rect x="384" y="32" width="8" height="16" class="solid filled" rx="0"></rect><rect x="416" y="32" width="8" height="16" class="solid filled" rx="0"></rect><rect x="424" y="32" width="8" height="16" class="solid filled" rx="0"></rect><rect x="432" y="32" width="8" height="16" class="solid filled" rx="0"></rect><rect x="440" y="32" width="8" height="16" class="solid filled" rx="0"></rect><rect x="264" y="48" width="8" height="16" class="solid filled" rx="0"></rect><rect x="272" y="48" width="8" height="16" class="solid filled" rx="0"></rect><rect x="304" y="48" width="8" height="16" class="solid filled" rx="0"></rect><rect x="312" y="48" width="8" height="16" class="solid filled" rx="0"></rect><rect x="328" y="48" width="8" height="16" class="solid filled" rx="0"></rect><rect x="336" y="48" width="8" height="16" class="solid filled" rx="0"></rect><rect x="376" y="48" width="8" height="16" class="solid filled" rx="0"></rect><rect x="384" y="48" width="8" height="16" class="solid filled" rx="0"></rect><rect x="424" y="48" width="8" height="16" class="solid filled" rx="0"></rect><rect x="432" y="48" width="8" height="16" class="solid filled" rx="0"></rect><rect x="264" y="64" width="8" height="16" class="solid filled" rx="0"></rect><rect x="272" y="64" width="8" height="16" class="solid filled" rx="0"></rect><rect x="304" y="64" width="8" height="16" class="solid filled" rx="0"></rect><rect x="312" y="64" width="8" height="16" class="solid filled" rx="0"></rect><rect x="336" y="64" width="8" height="16" class="solid filled" rx="0"></rect><rect x="344" y="64" width="8" height="16" class="solid filled" rx="0"></rect><rect x="352" y="64" width="8" height="16" class="solid filled" rx="0"></rect><rect x="360" y="64" width="8" height="16" class="solid filled" rx="0"></rect><rect x="368" y="64" width="8" height="16" class="solid filled" rx="0"></rect><rect x="376" y="64" width="8" height="16" class="solid filled" rx="0"></rect><rect x="424" y="64" width="8" height="16" class="solid filled" rx="0"></rect><rect x="432" y="64" width="8" height="16" class="solid filled" rx="0"></rect><g><line x1="56" y1="8" x2="62" y2="8" class="solid"></line><line x1="62" y1="8" x2="62" y2="16" class="solid"></line></g><g><line x1="56" y1="12" x2="58" y2="12" class="solid"></line><line x1="58" y1="12" x2="58" y2="16" class="solid"></line></g><g><line x1="128" y1="8" x2="134" y2="8" class="solid"></line><line x1="134" y1="8" x2="134" y2="16" class="solid"></line></g><g><line x1="128" y1="12" x2="130" y2="12" class="solid"></line><line x1="130" y1="12" x2="130" y2="16" class="solid"></line></g><g><line x1="160" y1="8" x2="166" y2="8" class="solid"></line><line x1="166" y1="8" x2="166" y2="32" class="solid"></line></g><g><line x1="160" y1="12" x2="162" y2="12" class="solid"></line><line x1="162" y1="12" x2="162" y2="32" class="solid"></line></g><g><line x1="200" y1="8" x2="206" y2="8" class="solid"></line><line x1="206" y1="8" x2="206" y2="28" class="solid"></line><line x1="198" y1="28" x2="206" y2="28" class="solid"></line><line x1="198" y1="28" x2="198" y2="44" class="solid"></line><line x1="190" y1="44" x2="198" y2="44" class="solid"></line><line x1="190" y1="44" x2="190" y2="48" class="solid"></line></g><g><line x1="200" y1="12" x2="202" y2="12" class="solid"></line><line x1="202" y1="12" x2="202" y2="24" class="solid"></line><line x1="194" y1="24" x2="202" y2="24" class="solid"></line><line x1="194" y1="24" x2="194" y2="40" class="solid"></line><line x1="186" y1="40" x2="194" y2="40" class="solid"></line><line x1="186" y1="40" x2="186" y2="48" class="solid"></line></g><g><line x1="224" y1="8" x2="230" y2="8" class="solid"></line><line x1="230" y1="8" x2="230" y2="92" class="solid"></line><line x1="210" y1="80" x2="210" y2="92" class="solid"></line><line x1="210" y1="92" x2="230" y2="92" class="solid"></line></g><g><line x1="224" y1="12" x2="226" y2="12" class="solid"></line><line x1="226" y1="12" x2="226" y2="88" class="solid"></line><line x1="214" y1="80" x2="214" y2="88" class="solid"></line><line x1="214" y1="88" x2="226" y2="88" class="solid"></line></g><g><line x1="26" y1="24" x2="48" y2="24" class="solid"></line><line x1="26" y1="24" x2="26" y2="32" class="solid"></line></g><g><line x1="30" y1="28" x2="48" y2="28" class="solid"></line><line x1="30" y1="28" x2="30" y2="32" class="solid"></line></g><g><line x1="64" y1="24" x2="70" y2="24" class="solid"></line><line x1="70" y1="24" x2="70" y2="44" class="solid"></line><line x1="62" y1="44" x2="70" y2="44" class="solid"></line><line x1="62" y1="44" x2="62" y2="48" class="solid"></line></g><g><line x1="64" y1="28" x2="66" y2="28" class="solid"></line><line x1="66" y1="28" x2="66" y2="40" class="solid"></line><line x1="58" y1="40" x2="66" y2="40" class="solid"></line><line x1="58" y1="40" x2="58" y2="48" class="solid"></line></g><g><line x1="90" y1="24" x2="120" y2="24" class="solid"></line><line x1="90" y1="24" x2="90" y2="64" class="solid"></line></g><g><line x1="94" y1="28" x2="120" y2="28" class="solid"></line><line x1="94" y1="28" x2="94" y2="64" class="solid"></line></g><g><line x1="136" y1="24" x2="142" y2="24" class="solid"></line><line x1="142" y1="24" x2="142" y2="76" class="solid"></line><line x1="134" y1="76" x2="142" y2="76" class="solid"></line><line x1="134" y1="76" x2="134" y2="92" class="solid"></line><line x1="82" y1="80" x2="82" y2="92" class="solid"></line><line x1="82" y1="92" x2="134" y2="92" class="solid"></line></g><g><line x1="136" y1="28" x2="138" y2="28" class="solid"></line><line x1="138" y1="28" x2="138" y2="72" class="solid"></line><line x1="130" y1="72" x2="138" y2="72" class="solid"></line><line x1="130" y1="72" x2="130" y2="88" class="solid"></line><line x1="86" y1="80" x2="86" y2="88" class="solid"></line><line x1="86" y1="88" x2="130" y2="88" class="solid"></line></g><g><line x1="26" y1="56" x2="48" y2="56" class="solid"></line><line x1="26" y1="56" x2="26" y2="88" class="solid"></line><line x1="14" y1="80" x2="14" y2="88" class="solid"></line><line x1="14" y1="88" x2="26" y2="88" class="solid"></line></g><g><line x1="30" y1="60" x2="48" y2="60" class="solid"></line><line x1="30" y1="60" x2="30" y2="92" class="solid"></line><line x1="10" y1="80" x2="10" y2="92" class="solid"></line><line x1="10" y1="92" x2="30" y2="92" class="solid"></line></g><g><line x1="64" y1="56" x2="70" y2="56" class="solid"></line><line x1="70" y1="56" x2="70" y2="92" class="solid"></line><line x1="50" y1="80" x2="50" y2="92" class="solid"></line><line x1="50" y1="92" x2="70" y2="92" class="solid"></line></g><g><line x1="64" y1="60" x2="66" y2="60" class="solid"></line><line x1="66" y1="60" x2="66" y2="88" class="solid"></line><line x1="54" y1="80" x2="54" y2="88" class="solid"></line><line x1="54" y1="88" x2="66" y2="88" class="solid"></line></g><g><line x1="162" y1="56" x2="176" y2="56" class="solid"></line><line x1="162" y1="56" x2="162" y2="88" class="solid"></line><line x1="150" y1="80" x2="150" y2="88" class="solid"></line><line x1="150" y1="88" x2="162" y2="88" class="solid"></line></g><g><line x1="166" y1="60" x2="176" y2="60" class="solid"></line><line x1="166" y1="60" x2="166" y2="92" class="solid"></line><line x1="146" y1="80" x2="146" y2="92" class="solid"></line><line x1="146" y1="92" x2="166" y2="92" class="solid"></line></g><g><line x1="192" y1="56" x2="198" y2="56" class="solid"></line><line x1="198" y1="56" x2="198" y2="64" class="solid"></line></g><g><line x1="192" y1="60" x2="194" y2="60" class="solid"></line><line x1="194" y1="60" x2="194" y2="64" class="solid"></line></g><g><line x1="74" y1="64" x2="74" y2="76" class="solid"></line><line x1="74" y1="76" x2="80" y2="76" class="solid"></line></g><g><line x1="78" y1="64" x2="78" y2="72" class="solid"></line><line x1="78" y1="72" x2="80" y2="72" class="solid"></line></g><g><line x1="200" y1="72" x2="206" y2="72" class="solid"></line><line x1="206" y1="72" x2="206" y2="92" class="solid"></line><line x1="186" y1="80" x2="186" y2="92" class="solid"></line><line x1="186" y1="92" x2="206" y2="92" class="solid"></line></g><g><line x1="200" y1="76" x2="202" y2="76" class="solid"></line><line x1="202" y1="76" x2="202" y2="88" class="solid"></line><line x1="190" y1="80" x2="190" y2="88" class="solid"></line><line x1="190" y1="88" x2="202" y2="88" class="solid"></line></g><g><line x1="312" y1="8" x2="318" y2="8" class="solid"></line><line x1="318" y1="8" x2="318" y2="16" class="solid"></line></g><g><line x1="312" y1="12" x2="314" y2="12" class="solid"></line><line x1="314" y1="12" x2="314" y2="16" class="solid"></line></g><g><line x1="384" y1="8" x2="390" y2="8" class="solid"></line><line x1="390" y1="8" x2="390" y2="16" class="solid"></line></g><g><line x1="384" y1="12" x2="386" y2="12" class="solid"></line><line x1="386" y1="12" x2="386" y2="16" class="solid"></line></g><g><line x1="416" y1="8" x2="422" y2="8" class="solid"></line><line x1="422" y1="8" x2="422" y2="16" class="solid"></line></g><g><line x1="416" y1="12" x2="418" y2="12" class="solid"></line><line x1="418" y1="12" x2="418" y2="16" class="solid"></line></g><g><line x1="464" y1="8" x2="470" y2="8" class="solid"></line><line x1="470" y1="8" x2="470" y2="28" class="solid"></line><line x1="462" y1="28" x2="470" y2="28" class="solid"></line><line x1="462" y1="28" x2="462" y2="44" class="solid"></line><line x1="454" y1="44" x2="462" y2="44" class="solid"></line><line x1="454" y1="44" x2="454" y2="60" class="solid"></line><line x1="446" y1="60" x2="454" y2="60" class="solid"></line><line x1="446" y1="60" x2="446" y2="92" class="solid"></line><line x1="426" y1="80" x2="426" y2="92" class="solid"></line><line x1="426" y1="92" x2="446" y2="92" class="solid"></line></g><g><line x1="464" y1="12" x2="466" y2="12" class="solid"></line><line x1="466" y1="12" x2="466" y2="24" class="solid"></line><line x1="458" y1="24" x2="466" y2="24" class="solid"></line><line x1="458" y1="24" x2="458" y2="40" class="solid"></line><line x1="450" y1="40" x2="458" y2="40" class="solid"></line><line x1="450" y1="40" x2="450" y2="56" class="solid"></line><line x1="442" y1="56" x2="450" y2="56" class="solid"></line><line x1="442" y1="56" x2="442" y2="88" class="solid"></line><line x1="430" y1="80" x2="430" y2="88" class="solid"></line><line x1="430" y1="88" x2="442" y2="88" class="solid"></line></g><g><line x1="282" y1="24" x2="304" y2="24" class="solid"></line><line x1="282" y1="24" x2="282" y2="32" class="solid"></line></g><g><line x1="286" y1="28" x2="304" y2="28" class="solid"></line><line x1="286" y1="28" x2="286" y2="32" class="solid"></line></g><g><line x1="320" y1="24" x2="326" y2="24" class="solid"></line><line x1="326" y1="24" x2="326" y2="44" class="solid"></line><line x1="318" y1="44" x2="326" y2="44" class="solid"></line><line x1="318" y1="44" x2="318" y2="48" class="solid"></line></g><g><line x1="320" y1="28" x2="322" y2="28" class="solid"></line><line x1="322" y1="28" x2="322" y2="40" class="solid"></line><line x1="314" y1="40" x2="322" y2="40" class="solid"></line><line x1="314" y1="40" x2="314" y2="48" class="solid"></line></g><g><line x1="346" y1="24" x2="376" y2="24" class="solid"></line><line x1="346" y1="24" x2="346" y2="64" class="solid"></line></g><g><line x1="350" y1="28" x2="376" y2="28" class="solid"></line><line x1="350" y1="28" x2="350" y2="64" class="solid"></line></g><g><line x1="392" y1="24" x2="398" y2="24" class="solid"></line><line x1="398" y1="24" x2="398" y2="76" class="solid"></line><line x1="390" y1="76" x2="398" y2="76" class="solid"></line><line x1="390" y1="76" x2="390" y2="92" class="solid"></line><line x1="338" y1="80" x2="338" y2="92" class="solid"></line><line x1="338" y1="92" x2="390" y2="92" class="solid"></line></g><g><line x1="392" y1="28" x2="394" y2="28" class="solid"></line><line x1="394" y1="28" x2="394" y2="72" class="solid"></line><line x1="386" y1="72" x2="394" y2="72" class="solid"></line><line x1="386" y1="72" x2="386" y2="88" class="solid"></line><line x1="342" y1="80" x2="342" y2="88" class="solid"></line><line x1="342" y1="88" x2="386" y2="88" class="solid"></line></g><g><line x1="402" y1="16" x2="402" y2="28" class="solid"></line><line x1="402" y1="28" x2="408" y2="28" class="solid"></line></g><g><line x1="406" y1="16" x2="406" y2="24" class="solid"></line><line x1="406" y1="24" x2="408" y2="24" class="solid"></line></g><g><line x1="424" y1="24" x2="430" y2="24" class="solid"></line><line x1="430" y1="24" x2="430" y2="32" class="solid"></line></g><g><line x1="424" y1="28" x2="426" y2="28" class="solid"></line><line x1="426" y1="28" x2="426" y2="32" class="solid"></line></g><g><line x1="410" y1="32" x2="410" y2="44" class="solid"></line><line x1="410" y1="44" x2="416" y2="44" class="solid"></line></g><g><line x1="414" y1="32" x2="414" y2="40" class="solid"></line><line x1="414" y1="40" x2="416" y2="40" class="solid"></line></g><g><line x1="282" y1="56" x2="304" y2="56" class="solid"></line><line x1="282" y1="56" x2="282" y2="88" class="solid"></line><line x1="270" y1="80" x2="270" y2="88" class="solid"></line><line x1="270" y1="88" x2="282" y2="88" class="solid"></line></g><g><line x1="286" y1="60" x2="304" y2="60" class="solid"></line><line x1="286" y1="60" x2="286" y2="92" class="solid"></line><line x1="266" y1="80" x2="266" y2="92" class="solid"></line><line x1="266" y1="92" x2="286" y2="92" class="solid"></line></g><g><line x1="320" y1="56" x2="326" y2="56" class="solid"></line><line x1="326" y1="56" x2="326" y2="92" class="solid"></line><line x1="306" y1="80" x2="306" y2="92" class="solid"></line><line x1="306" y1="92" x2="326" y2="92" class="solid"></line></g><g><line x1="320" y1="60" x2="322" y2="60" class="solid"></line><line x1="322" y1="60" x2="322" y2="88" class="solid"></line><line x1="310" y1="80" x2="310" y2="88" class="solid"></line><line x1="310" y1="88" x2="322" y2="88" class="solid"></line></g><g><line x1="418" y1="48" x2="418" y2="60" class="solid"></line><line x1="418" y1="60" x2="424" y2="60" class="solid"></line></g><g><line x1="422" y1="48" x2="422" y2="56" class="solid"></line><line x1="422" y1="56" x2="424" y2="56" class="solid"></line></g><g><line x1="330" y1="64" x2="330" y2="76" class="solid"></line><line x1="330" y1="76" x2="336" y2="76" class="solid"></line></g><g><line x1="334" y1="64" x2="334" y2="72" class="solid"></line><line x1="334" y1="72" x2="336" y2="72" class="solid"></line></g></svg>